<mxfile host="app.diagrams.net" modified="2022-08-18T04:29:52.407Z" agent="5.0 (Macintosh; Intel Mac OS X 10_15_7) AppleWebKit/537.36 (KHTML, like Gecko) Chrome/103.0.0.0 Safari/537.36" etag="ZYozlumF79vvLmOJLsDo" version="20.2.4" type="github">
  <diagram id="kHfTxe5b0bxNyNZ3HCPR" name="ページ1">
    <mxGraphModel dx="1186" dy="2268" grid="0" gridSize="10" guides="1" tooltips="1" connect="1" arrows="1" fold="1" page="1" pageScale="1" pageWidth="1169" pageHeight="827" math="0" shadow="0">
      <root>
        <mxCell id="0" />
        <mxCell id="1" parent="0" />
        <mxCell id="QkEKCxByCvUAj2B9YuyN-1" value="&lt;p style=&quot;margin: 0mm; font-size: 10.5pt; font-family: 游明朝, serif;&quot; align=&quot;center&quot; class=&quot;MsoNormal&quot;&gt;&lt;span style=&quot;font-size: 16pt;&quot;&gt;●試験内容に関する課題・設計&lt;span lang=&quot;EN-US&quot;&gt;&lt;/span&gt;&lt;/span&gt;&lt;/p&gt;&lt;p style=&quot;margin: 0mm; text-align: left; font-size: 10.5pt; font-family: 游明朝, serif;&quot; align=&quot;left&quot; class=&quot;MsoNormal&quot;&gt;&lt;span style=&quot;font-size: 11pt; color: red;&quot;&gt;◎オンプレミスにて&lt;span lang=&quot;EN-US&quot;&gt;EC&lt;/span&gt;サイトを運営していた企業が、&lt;span lang=&quot;EN-US&quot;&gt;AWS&lt;/span&gt;へ全面移行したいとの依頼を出してきた。下記要望に沿った最適なアーキテクチャを構成する。&lt;span lang=&quot;EN-US&quot;&gt;&lt;/span&gt;&lt;/span&gt;&lt;/p&gt;&lt;p style=&quot;margin: 0mm; font-size: 10.5pt; font-family: 游明朝, serif;&quot; align=&quot;center&quot; class=&quot;MsoNormal&quot;&gt;&lt;span style=&quot;font-size: 16pt;&quot; lang=&quot;EN-US&quot;&gt;&amp;nbsp;&lt;/span&gt;&lt;/p&gt;&lt;p style=&quot;margin: 0mm; font-size: 10.5pt; font-family: 游明朝, serif;&quot; align=&quot;center&quot; class=&quot;MsoNormal&quot;&gt;&lt;span style=&quot;font-size: 16pt; color: rgb(142, 170, 219);&quot;&gt;○クライアントからの要望&lt;span lang=&quot;EN-US&quot;&gt;&lt;/span&gt;&lt;/span&gt;&lt;/p&gt;&lt;p style=&quot;margin: 0mm; text-align: left; font-size: 10.5pt; font-family: 游明朝, serif;&quot; align=&quot;left&quot; class=&quot;MsoNormal&quot;&gt;&lt;span style=&quot;font-size: 11pt; color: rgb(142, 170, 219);&quot;&gt;○既存システムの概要&lt;span lang=&quot;EN-US&quot;&gt;&lt;/span&gt;&lt;/span&gt;&lt;/p&gt;&lt;p style=&quot;margin: 0mm; text-align: left; font-size: 10.5pt; font-family: 游明朝, serif;&quot; align=&quot;left&quot; class=&quot;MsoNormal&quot;&gt;&lt;span style=&quot;font-size: 11pt;&quot;&gt;・日中にアクセスが集中し、夜間はアクセスが低下&lt;span lang=&quot;EN-US&quot;&gt;&lt;/span&gt;&lt;/span&gt;&lt;/p&gt;&lt;p style=&quot;margin: 0mm; text-align: left; font-size: 10.5pt; font-family: 游明朝, serif;&quot; align=&quot;left&quot; class=&quot;MsoNormal&quot;&gt;&lt;span style=&quot;font-size: 11pt;&quot;&gt;・画像コンテンツを多量に扱う。ストレージ容量は今後増え続ける想定&lt;span lang=&quot;EN-US&quot;&gt;&lt;/span&gt;&lt;/span&gt;&lt;/p&gt;&lt;p style=&quot;margin: 0mm 0mm 0mm 11pt; text-align: left; font-size: 10.5pt; font-family: 游明朝, serif; text-indent: -11pt;&quot; align=&quot;left&quot; class=&quot;MsoNormal&quot;&gt;&lt;span style=&quot;font-size: 11pt;&quot;&gt;・システムの管理画面は、「ドメイン名&lt;span lang=&quot;EN-US&quot;&gt;/manage/&lt;/span&gt;」に設定されており別サーバ（管理用サーバ）で稼働している&lt;span lang=&quot;EN-US&quot;&gt;&lt;/span&gt;&lt;/span&gt;&lt;/p&gt;&lt;p style=&quot;margin: 0mm; text-align: left; font-size: 10.5pt; font-family: 游明朝, serif;&quot; align=&quot;left&quot; class=&quot;MsoNormal&quot;&gt;&lt;span style=&quot;font-size: 11pt;&quot;&gt;・クライアントからの接続は、&lt;span lang=&quot;EN-US&quot;&gt;L&lt;/span&gt;７ロードバランサにてセッション管理を実施&lt;span lang=&quot;EN-US&quot;&gt;&lt;/span&gt;&lt;/span&gt;&lt;/p&gt;&lt;p style=&quot;margin: 0mm 0mm 0mm 11pt; text-align: left; font-size: 10.5pt; font-family: 游明朝, serif; text-indent: -11pt;&quot; align=&quot;left&quot; class=&quot;MsoNormal&quot;&gt;&lt;span style=&quot;font-size: 11pt;&quot;&gt;・サービス運営者は、管理用サーバにてサイトの修正をおこない、管理用サーバにアップロードされた画像などの静的コンテンツは、各サーバの特定のディレクトリ以下に自動で配信される&lt;span lang=&quot;EN-US&quot;&gt;&lt;/span&gt;&lt;/span&gt;&lt;/p&gt;&lt;p style=&quot;margin: 0mm; text-align: left; font-size: 10.5pt; font-family: 游明朝, serif;&quot; align=&quot;left&quot; class=&quot;MsoNormal&quot;&gt;&lt;span style=&quot;font-size: 11pt;&quot;&gt;・データベースサーバは負荷対策のため更新系と参照系に分かれている。&lt;span lang=&quot;EN-US&quot;&gt;&lt;/span&gt;&lt;/span&gt;&lt;/p&gt;&lt;p style=&quot;margin: 0mm 0mm 0mm 11pt; text-align: left; font-size: 10.5pt; font-family: 游明朝, serif; text-indent: -11pt;&quot; align=&quot;left&quot; class=&quot;MsoNormal&quot;&gt;&lt;span style=&quot;font-size: 11pt;&quot;&gt;・更新系のデータベースサーバは、常にホットスタンバイとなっている。&lt;span lang=&quot;EN-US&quot;&gt;&lt;/span&gt;&lt;/span&gt;&lt;/p&gt;&lt;p style=&quot;margin: 0mm 0mm 0mm 11pt; text-align: left; font-size: 10.5pt; font-family: 游明朝, serif; text-indent: -11pt;&quot; align=&quot;left&quot; class=&quot;MsoNormal&quot;&gt;&lt;span style=&quot;font-size: 11pt;&quot; lang=&quot;EN-US&quot;&gt;&amp;nbsp;&lt;/span&gt;&lt;/p&gt;&lt;p style=&quot;margin: 0mm 0mm 0mm 11pt; text-align: left; font-size: 10.5pt; font-family: 游明朝, serif; text-indent: -11pt;&quot; align=&quot;left&quot; class=&quot;MsoNormal&quot;&gt;&lt;span style=&quot;font-size: 11pt; color: rgb(142, 170, 219);&quot;&gt;○要望&lt;span lang=&quot;EN-US&quot;&gt;&lt;/span&gt;&lt;/span&gt;&lt;/p&gt;&lt;p style=&quot;margin: 0mm; text-align: left; font-size: 10.5pt; font-family: 游明朝, serif;&quot; align=&quot;left&quot; class=&quot;MsoNormal&quot;&gt;&lt;span style=&quot;font-size: 11pt;&quot;&gt;・個人情報、決済情報の取り扱いがあるため、可能な限りセキュアなアーキテクチャ&lt;span lang=&quot;EN-US&quot;&gt;&lt;/span&gt;&lt;/span&gt;&lt;/p&gt;&lt;p style=&quot;margin: 0mm; text-align: left; font-size: 10.5pt; font-family: 游明朝, serif;&quot; align=&quot;left&quot; class=&quot;MsoNormal&quot;&gt;&lt;span style=&quot;font-size: 11pt;&quot;&gt;・サービスのレスポンス速度の向上&lt;span lang=&quot;EN-US&quot;&gt;&lt;/span&gt;&lt;/span&gt;&lt;/p&gt;&lt;p style=&quot;margin: 0mm; text-align: left; font-size: 10.5pt; font-family: 游明朝, serif;&quot; align=&quot;left&quot; class=&quot;MsoNormal&quot;&gt;&lt;span style=&quot;font-size: 11pt;&quot;&gt;・耐障害性を含めたアーキテクチャ&lt;span lang=&quot;EN-US&quot;&gt;&lt;/span&gt;&lt;/span&gt;&lt;/p&gt;&lt;p style=&quot;margin: 0mm; text-align: left; font-size: 10.5pt; font-family: 游明朝, serif;&quot; align=&quot;left&quot; class=&quot;MsoNormal&quot;&gt;&lt;span style=&quot;font-size: 11pt;&quot;&gt;・余剰リソースを極力抑え、利用費を最適化&lt;span lang=&quot;EN-US&quot;&gt;&lt;/span&gt;&lt;/span&gt;&lt;/p&gt;&lt;p style=&quot;margin: 0mm; text-align: left; font-size: 10.5pt; font-family: 游明朝, serif;&quot; align=&quot;left&quot; class=&quot;MsoNormal&quot;&gt;&lt;span style=&quot;font-size: 11pt;&quot;&gt;・障害・異常検知を行い即座に通知&lt;span lang=&quot;EN-US&quot;&gt;&lt;/span&gt;&lt;/span&gt;&lt;/p&gt;&lt;p style=&quot;margin: 0mm; text-align: left; font-size: 10.5pt; font-family: 游明朝, serif;&quot; align=&quot;left&quot; class=&quot;MsoNormal&quot;&gt;&lt;span style=&quot;font-size: 11pt;&quot;&gt;・一般的な攻撃へのアプリケーション保護&lt;span lang=&quot;EN-US&quot;&gt;&lt;/span&gt;&lt;/span&gt;&lt;/p&gt;&lt;p style=&quot;margin: 0mm; text-align: left; font-size: 10.5pt; font-family: 游明朝, serif;&quot; align=&quot;left&quot; class=&quot;MsoNormal&quot;&gt;&lt;span style=&quot;font-size: 11pt;&quot;&gt;・管理用サーバは複数台構成不可だが、単体サーバで耐障害性を高めたい&lt;span lang=&quot;EN-US&quot;&gt;&lt;/span&gt;&lt;/span&gt;&lt;/p&gt;&lt;p style=&quot;margin: 0mm; text-align: left; font-size: 10.5pt; font-family: 游明朝, serif;&quot; align=&quot;left&quot; class=&quot;MsoNormal&quot;&gt;&lt;span style=&quot;font-size: 11pt;&quot;&gt;・移設完了は、着手から２ヶ月以内&lt;span lang=&quot;EN-US&quot;&gt;&lt;/span&gt;&lt;/span&gt;&lt;/p&gt;" style="text;html=1;strokeColor=none;fillColor=none;align=center;verticalAlign=middle;whiteSpace=wrap;rounded=0;" vertex="1" parent="1">
          <mxGeometry x="49" y="-742" width="620" height="500" as="geometry" />
        </mxCell>
        <mxCell id="QkEKCxByCvUAj2B9YuyN-3" value="&lt;p style=&quot;margin: 0mm; text-align: left; font-size: 10.5pt; font-family: 游明朝, serif;&quot; align=&quot;left&quot; class=&quot;MsoNormal&quot;&gt;&lt;span style=&quot;font-size: 11pt; color: rgb(142, 170, 219);&quot;&gt;○各要望に対するアーキテクチャ&lt;span lang=&quot;EN-US&quot;&gt;&lt;/span&gt;&lt;/span&gt;&lt;/p&gt;&lt;p style=&quot;margin: 0mm; text-align: left; font-size: 10.5pt; font-family: 游明朝, serif;&quot; align=&quot;left&quot; class=&quot;MsoNormal&quot;&gt;&lt;span style=&quot;font-size: 11pt;&quot; lang=&quot;EN-US&quot;&gt;&amp;nbsp;&lt;/span&gt;&lt;/p&gt;&lt;p style=&quot;margin: 0mm; text-align: left; font-size: 10.5pt; font-family: 游明朝, serif;&quot; align=&quot;left&quot; class=&quot;MsoNormal&quot;&gt;&lt;span style=&quot;font-size: 11pt;&quot;&gt;◎&lt;span style=&quot;background: yellow;&quot;&gt;日中にアクセス集中、夜間に低下、キャンペーンセール時にはサーバー高負荷に伴い、エラーが多発&lt;/span&gt;&lt;span lang=&quot;EN-US&quot;&gt;&lt;/span&gt;&lt;/span&gt;&lt;/p&gt;&lt;p style=&quot;margin: 0mm; text-align: left; font-size: 10.5pt; font-family: 游明朝, serif;&quot; align=&quot;left&quot; class=&quot;MsoNormal&quot;&gt;&lt;span style=&quot;font-size: 11pt;&quot;&gt;◎&lt;span style=&quot;background: yellow;&quot;&gt;余剰リソースを極力抑え、利用費を最適化&lt;/span&gt;&lt;span lang=&quot;EN-US&quot;&gt;&lt;/span&gt;&lt;/span&gt;&lt;/p&gt;&lt;p style=&quot;margin: 0mm; text-align: left; font-size: 10.5pt; font-family: 游明朝, serif;&quot; align=&quot;left&quot; class=&quot;MsoNormal&quot;&gt;&lt;span style=&quot;font-size: 11pt;&quot;&gt;・オンプレミスサーバーが&lt;span lang=&quot;EN-US&quot;&gt;centOS&lt;/span&gt;のため、&lt;span lang=&quot;EN-US&quot;&gt;linux&lt;/span&gt;サーバーにて&lt;span lang=&quot;EN-US&quot;&gt;EC2&lt;/span&gt;を作成&lt;span lang=&quot;EN-US&quot;&gt;&lt;/span&gt;&lt;/span&gt;&lt;/p&gt;&lt;p style=&quot;margin: 0mm; text-align: left; font-size: 10.5pt; font-family: 游明朝, serif;&quot; align=&quot;left&quot; class=&quot;MsoNormal&quot;&gt;&lt;span style=&quot;font-size: 11pt;&quot;&gt;・マルチ&lt;span lang=&quot;EN-US&quot;&gt;AZ&lt;/span&gt;構成により可用性を&lt;span lang=&quot;EN-US&quot;&gt;&lt;/span&gt;&lt;/span&gt;&lt;/p&gt;&lt;p style=&quot;margin: 0mm; text-align: left; font-size: 10.5pt; font-family: 游明朝, serif;&quot; align=&quot;left&quot; class=&quot;MsoNormal&quot;&gt;&lt;span style=&quot;font-size: 11pt;&quot;&gt;・スケジュールされたスケーリングにより日中はインスタンス数を増加（アクセスに対する具体的な記載がないため台数は指定しないが最小限に抑える）、夜間にインスタンスを元の状態に&lt;span lang=&quot;EN-US&quot;&gt;&lt;/span&gt;&lt;/span&gt;&lt;/p&gt;&lt;p style=&quot;margin: 0mm; text-align: left; font-size: 10.5pt; font-family: 游明朝, serif;&quot; align=&quot;left&quot; class=&quot;MsoNormal&quot;&gt;&lt;span style=&quot;font-size: 11pt;&quot;&gt;・キャンペーン時には、さらに増やす&lt;span lang=&quot;EN-US&quot;&gt;&lt;/span&gt;&lt;/span&gt;&lt;/p&gt;&lt;p style=&quot;margin: 0mm; text-align: left; font-size: 10.5pt; font-family: 游明朝, serif;&quot; align=&quot;left&quot; class=&quot;MsoNormal&quot;&gt;&lt;span style=&quot;font-size: 11pt;&quot;&gt;・動的スケーリングにより&lt;span lang=&quot;EN-US&quot;&gt;CPU&lt;/span&gt;使用率に対し、インスタンスを増減&lt;span lang=&quot;EN-US&quot;&gt;&lt;/span&gt;&lt;/span&gt;&lt;/p&gt;&lt;p style=&quot;margin: 0mm; text-align: left; font-size: 10.5pt; font-family: 游明朝, serif;&quot; align=&quot;left&quot; class=&quot;MsoNormal&quot;&gt;&lt;span style=&quot;font-size: 11pt;&quot; lang=&quot;EN-US&quot;&gt;&amp;nbsp;&lt;/span&gt;&lt;/p&gt;&lt;p style=&quot;margin: 0mm; text-align: left; font-size: 10.5pt; font-family: 游明朝, serif;&quot; align=&quot;left&quot; class=&quot;MsoNormal&quot;&gt;&lt;span style=&quot;font-size: 11pt;&quot;&gt;◎&lt;span style=&quot;background: yellow;&quot;&gt;個人情報、決済情報取扱のため、できる限りセキュアなアーキテクチャとの要件&lt;/span&gt;&lt;span lang=&quot;EN-US&quot;&gt;&lt;/span&gt;&lt;/span&gt;&lt;/p&gt;&lt;p style=&quot;margin: 0mm; text-align: left; font-size: 10.5pt; font-family: 游明朝, serif;&quot; align=&quot;left&quot; class=&quot;MsoNormal&quot;&gt;&lt;span style=&quot;font-size: 11pt;&quot;&gt;・&lt;span lang=&quot;EN-US&quot;&gt;SSH&lt;/span&gt;接続はプロキシサーバーを利用し、多段接続にて管理サーバーへ接続、サーバーからインターネットへ接続の際は&lt;span lang=&quot;EN-US&quot;&gt;NAT&lt;/span&gt;経由で接続&lt;span lang=&quot;EN-US&quot;&gt;&lt;/span&gt;&lt;/span&gt;&lt;/p&gt;&lt;p style=&quot;margin: 0mm; text-align: left; font-size: 10.5pt; font-family: 游明朝, serif;&quot; align=&quot;left&quot; class=&quot;MsoNormal&quot;&gt;&lt;span style=&quot;font-size: 11pt;&quot;&gt;・クライアント、&lt;span lang=&quot;EN-US&quot;&gt;CloudFront&lt;/span&gt;、&lt;span lang=&quot;EN-US&quot;&gt;ALB&lt;/span&gt;間を暗号化&lt;span lang=&quot;EN-US&quot;&gt;&lt;/span&gt;&lt;/span&gt;&lt;/p&gt;&lt;p style=&quot;margin: 0mm; text-align: left; font-size: 10.5pt; font-family: 游明朝, serif;&quot; align=&quot;left&quot; class=&quot;MsoNormal&quot;&gt;&lt;span style=&quot;font-size: 11pt;&quot; lang=&quot;EN-US&quot;&gt;&amp;nbsp;&lt;/span&gt;&lt;/p&gt;&lt;p style=&quot;margin: 0mm; text-align: left; font-size: 10.5pt; font-family: 游明朝, serif;&quot; align=&quot;left&quot; class=&quot;MsoNormal&quot;&gt;&lt;span style=&quot;font-size: 11pt;&quot;&gt;◎&lt;span style=&quot;background: yellow;&quot;&gt;管理用サーバにアップロードされた静的コンテンツは、各サーバの特定のディレクトリ以下に自動で配信&lt;span lang=&quot;EN-US&quot;&gt;&lt;/span&gt;&lt;/span&gt;&lt;/span&gt;&lt;/p&gt;&lt;p style=&quot;margin: 0mm; text-align: left; font-size: 10.5pt; font-family: 游明朝, serif;&quot; align=&quot;left&quot; class=&quot;MsoNormal&quot;&gt;&lt;span style=&quot;font-size: 11pt;&quot;&gt;◎&lt;span style=&quot;background: yellow;&quot;&gt;画像コンテンツを多量に扱う→画像用ストレージが大容量で必要&lt;span lang=&quot;EN-US&quot;&gt;&lt;/span&gt;&lt;/span&gt;&lt;/span&gt;&lt;/p&gt;&lt;p style=&quot;margin: 0mm 0mm 0mm 5.5pt; text-align: left; font-size: 10.5pt; font-family: 游明朝, serif; text-indent: -5.5pt;&quot; align=&quot;left&quot; class=&quot;MsoNormal&quot;&gt;&lt;span style=&quot;font-size: 11pt;&quot;&gt;・&lt;span lang=&quot;EN-US&quot;&gt;S3&lt;/span&gt;をオリジンサーバーとし、アップロードした静的コンテンツを&lt;span lang=&quot;EN-US&quot;&gt;CloudFront&lt;/span&gt;に配信&lt;span lang=&quot;EN-US&quot;&gt;&lt;/span&gt;&lt;/span&gt;&lt;/p&gt;&lt;p style=&quot;margin: 0mm; text-align: left; font-size: 10.5pt; font-family: 游明朝, serif;&quot; align=&quot;left&quot; class=&quot;MsoNormal&quot;&gt;&lt;span style=&quot;font-size: 11pt;&quot;&gt;・コンテンツ配信は&lt;span lang=&quot;EN-US&quot;&gt;CloudFront&lt;/span&gt;にて実施（エッジロケーションによるコンテンツ配信で最小レイテンシーでグローバルなクライアントに対してコンテンツ配信が可能なため）&lt;span lang=&quot;EN-US&quot;&gt;&lt;/span&gt;&lt;/span&gt;&lt;/p&gt;&lt;p style=&quot;margin: 0mm; text-align: left; font-size: 10.5pt; font-family: 游明朝, serif;&quot; align=&quot;left&quot; class=&quot;MsoNormal&quot;&gt;&lt;span style=&quot;font-size: 11pt;&quot;&gt;◎&lt;span style=&quot;background: yellow;&quot; lang=&quot;EN-US&quot;&gt;L7&lt;/span&gt;&lt;span style=&quot;background: yellow;&quot;&gt;ロードバランサー、&lt;span lang=&quot;EN-US&quot;&gt;URL&lt;/span&gt;で管理用サーバーへの振り分け&lt;/span&gt;&lt;span lang=&quot;EN-US&quot;&gt;&lt;/span&gt;&lt;/span&gt;&lt;/p&gt;&lt;p style=&quot;margin: 0mm; text-align: left; font-size: 10.5pt; font-family: 游明朝, serif;&quot; align=&quot;left&quot; class=&quot;MsoNormal&quot;&gt;&lt;span style=&quot;font-size: 11pt;&quot;&gt;・&lt;span lang=&quot;EN-US&quot;&gt;ALB&lt;/span&gt;に管理者用&lt;span lang=&quot;EN-US&quot;&gt;URL&lt;/span&gt;を登録し振り分け&lt;span lang=&quot;EN-US&quot;&gt;&lt;/span&gt;&lt;/span&gt;&lt;/p&gt;&lt;p style=&quot;margin: 0mm; text-align: left; font-size: 10.5pt; font-family: 游明朝, serif;&quot; align=&quot;left&quot; class=&quot;MsoNormal&quot;&gt;&lt;span style=&quot;font-size: 11pt;&quot;&gt;・一般クライアントは&lt;span lang=&quot;EN-US&quot;&gt;web&lt;/span&gt;サーバーへ振り分け&lt;span lang=&quot;EN-US&quot;&gt;&lt;/span&gt;&lt;/span&gt;&lt;/p&gt;&lt;p style=&quot;margin: 0mm; text-align: left; font-size: 10.5pt; font-family: 游明朝, serif;&quot; align=&quot;left&quot; class=&quot;MsoNormal&quot;&gt;&lt;span style=&quot;font-size: 11pt;&quot;&gt;・&lt;span lang=&quot;EN-US&quot;&gt;Route53&lt;/span&gt;でドメインを取得し&lt;span lang=&quot;EN-US&quot;&gt;ALB&lt;/span&gt;にドメインを割り当て&lt;span lang=&quot;EN-US&quot;&gt;HTTPS&lt;/span&gt;化&lt;span lang=&quot;EN-US&quot;&gt;&lt;/span&gt;&lt;/span&gt;&lt;/p&gt;&lt;p style=&quot;margin: 0mm; text-align: left; font-size: 10.5pt; font-family: 游明朝, serif;&quot; align=&quot;left&quot; class=&quot;MsoNormal&quot;&gt;&lt;span style=&quot;font-size: 11pt;&quot; lang=&quot;EN-US&quot;&gt;&amp;nbsp;&lt;/span&gt;&lt;/p&gt;&lt;p style=&quot;margin: 0mm; text-align: left; font-size: 10.5pt; font-family: 游明朝, serif;&quot; align=&quot;left&quot; class=&quot;MsoNormal&quot;&gt;&lt;span style=&quot;font-size: 11pt;&quot;&gt;◎&lt;span style=&quot;background: yellow;&quot;&gt;データベースサーバは負荷対策のため更新系と参照系に分かれている&lt;span lang=&quot;EN-US&quot;&gt;(mysql,centos)&lt;/span&gt;&lt;/span&gt;&lt;/span&gt;&lt;/p&gt;&lt;p style=&quot;margin: 0mm; text-align: left; font-size: 10.5pt; font-family: 游明朝, serif;&quot; align=&quot;left&quot; class=&quot;MsoNormal&quot;&gt;&lt;span style=&quot;font-size: 11pt; background: yellow;&quot;&gt;　サービスのレスポンス速度の向上&lt;span lang=&quot;EN-US&quot;&gt;&lt;/span&gt;&lt;/span&gt;&lt;/p&gt;&lt;p style=&quot;margin: 0mm; text-align: left; font-size: 10.5pt; font-family: 游明朝, serif;&quot; align=&quot;left&quot; class=&quot;MsoNormal&quot;&gt;&lt;span style=&quot;font-size: 11pt;&quot;&gt;・データベースは&lt;span lang=&quot;EN-US&quot;&gt;mysql&lt;/span&gt;互換の&lt;span lang=&quot;EN-US&quot;&gt;RDS&lt;/span&gt;を使用&lt;span lang=&quot;EN-US&quot;&gt;&lt;/span&gt;&lt;/span&gt;&lt;/p&gt;&lt;p style=&quot;margin: 0mm; text-align: left; font-size: 10.5pt; font-family: 游明朝, serif;&quot; align=&quot;left&quot; class=&quot;MsoNormal&quot;&gt;&lt;span style=&quot;font-size: 11pt;&quot;&gt;・マルチ&lt;span lang=&quot;EN-US&quot;&gt;AZ&lt;/span&gt;構成、障害時は自動フェイルオーバーによりスレーブをマスターへ昇格&lt;span lang=&quot;EN-US&quot;&gt;&lt;/span&gt;&lt;/span&gt;&lt;/p&gt;&lt;p style=&quot;margin: 0mm; text-align: left; font-size: 10.5pt; font-family: 游明朝, serif;&quot; align=&quot;left&quot; class=&quot;MsoNormal&quot;&gt;&lt;span style=&quot;font-size: 11pt;&quot;&gt;・高速化を図るため、&lt;span lang=&quot;EN-US&quot;&gt;Elasticache(redis)&lt;/span&gt;を使用&lt;span lang=&quot;EN-US&quot;&gt;&lt;/span&gt;&lt;/span&gt;&lt;/p&gt;&lt;p style=&quot;margin: 0mm; text-align: left; font-size: 10.5pt; font-family: 游明朝, serif;&quot; align=&quot;left&quot; class=&quot;MsoNormal&quot;&gt;&lt;span style=&quot;font-size: 11pt;&quot; lang=&quot;EN-US&quot;&gt;&amp;nbsp;&lt;/span&gt;&lt;/p&gt;&lt;p style=&quot;margin: 0mm; text-align: left; font-size: 10.5pt; font-family: 游明朝, serif;&quot; align=&quot;left&quot; class=&quot;MsoNormal&quot;&gt;&lt;span style=&quot;font-size: 11pt; background: yellow;&quot;&gt;◎一般的な攻撃へのアプリケーション保護&lt;/span&gt;&lt;span style=&quot;font-size: 11pt;&quot; lang=&quot;EN-US&quot;&gt;&lt;/span&gt;&lt;/p&gt;&lt;p style=&quot;margin: 0mm; text-align: left; font-size: 10.5pt; font-family: 游明朝, serif;&quot; align=&quot;left&quot; class=&quot;MsoNormal&quot;&gt;&lt;span style=&quot;font-size: 11pt;&quot;&gt;・&lt;span lang=&quot;EN-US&quot;&gt;WAF&lt;/span&gt;により&lt;span lang=&quot;EN-US&quot;&gt;SQL&lt;/span&gt;インジェクション等の一般的な攻撃をブロック&lt;span lang=&quot;EN-US&quot;&gt;,&lt;/span&gt;&lt;/span&gt;&lt;/p&gt;&lt;p style=&quot;margin: 0mm; text-align: left; font-size: 10.5pt; font-family: 游明朝, serif;&quot; align=&quot;left&quot; class=&quot;MsoNormal&quot;&gt;&lt;span style=&quot;font-size: 11pt;&quot;&gt;　&lt;span lang=&quot;EN-US&quot;&gt;CloudFront&lt;/span&gt;と連携し、ビューワーと&lt;span lang=&quot;EN-US&quot;&gt;cloudFront&lt;/span&gt;間で&lt;span lang=&quot;EN-US&quot;&gt;https&lt;/span&gt;を必須化する&lt;span lang=&quot;EN-US&quot;&gt;&lt;/span&gt;&lt;/span&gt;&lt;/p&gt;&lt;p style=&quot;margin: 0mm; text-align: left; font-size: 10.5pt; font-family: 游明朝, serif;&quot; align=&quot;left&quot; class=&quot;MsoNormal&quot;&gt;&lt;span style=&quot;font-size: 11pt;&quot; lang=&quot;EN-US&quot;&gt;&amp;nbsp;&lt;/span&gt;&lt;/p&gt;&lt;p style=&quot;margin: 0mm; text-align: left; font-size: 10.5pt; font-family: 游明朝, serif;&quot; align=&quot;left&quot; class=&quot;MsoNormal&quot;&gt;&lt;span style=&quot;font-size: 11pt; background: yellow;&quot;&gt;◎管理者用サーバは複数台構成が不可能のため、単体稼働で耐障害性を高めたい&lt;/span&gt;&lt;span style=&quot;font-size: 11pt;&quot; lang=&quot;EN-US&quot;&gt;&lt;/span&gt;&lt;/p&gt;&lt;p style=&quot;margin: 0mm; text-align: left; font-size: 10.5pt; font-family: 游明朝, serif;&quot; align=&quot;left&quot; class=&quot;MsoNormal&quot;&gt;&lt;span style=&quot;font-size: 11pt;&quot;&gt;・&lt;span lang=&quot;EN-US&quot;&gt;AMI&lt;/span&gt;を活用しリージョン間コピーする&lt;span lang=&quot;EN-US&quot;&gt;&lt;/span&gt;&lt;/span&gt;&lt;/p&gt;&lt;p style=&quot;margin: 0mm; text-align: left; font-size: 10.5pt; font-family: 游明朝, serif;&quot; align=&quot;left&quot; class=&quot;MsoNormal&quot;&gt;&lt;span style=&quot;font-size: 11pt;&quot; lang=&quot;EN-US&quot;&gt;&amp;nbsp;&lt;/span&gt;&lt;/p&gt;&lt;p style=&quot;margin: 0mm; text-align: left; font-size: 10.5pt; font-family: 游明朝, serif;&quot; align=&quot;left&quot; class=&quot;MsoNormal&quot;&gt;&lt;span style=&quot;font-size: 11pt; background: yellow;&quot;&gt;◎障害・異常検知を行い即座に通知できるようにしたい&lt;/span&gt;&lt;span style=&quot;font-size: 11pt;&quot; lang=&quot;EN-US&quot;&gt;&lt;/span&gt;&lt;/p&gt;&lt;p style=&quot;margin: 0mm; text-align: left; font-size: 10.5pt; font-family: 游明朝, serif;&quot; align=&quot;left&quot; class=&quot;MsoNormal&quot;&gt;&lt;span style=&quot;font-size: 11pt;&quot;&gt;・&lt;span lang=&quot;EN-US&quot;&gt;Cloud Wacth&lt;/span&gt;アラームの設定、&lt;span lang=&quot;EN-US&quot;&gt;SNS&lt;/span&gt;との連携により即座に通知&lt;span lang=&quot;EN-US&quot;&gt;&lt;/span&gt;&lt;/span&gt;&lt;/p&gt;&lt;p style=&quot;margin: 0mm; text-align: left; font-size: 10.5pt; font-family: 游明朝, serif;&quot; align=&quot;left&quot; class=&quot;MsoNormal&quot;&gt;&lt;span style=&quot;font-size: 11pt;&quot;&gt;→&lt;span lang=&quot;EN-US&quot;&gt;EC2&lt;/span&gt;と&lt;span lang=&quot;EN-US&quot;&gt;RDS&lt;/span&gt;を監視&lt;span lang=&quot;EN-US&quot;&gt;&lt;/span&gt;&lt;/span&gt;&lt;/p&gt;" style="text;html=1;strokeColor=none;fillColor=none;align=center;verticalAlign=middle;whiteSpace=wrap;rounded=0;" vertex="1" parent="1">
          <mxGeometry x="698" y="-993" width="580" height="1550" as="geometry" />
        </mxCell>
      </root>
    </mxGraphModel>
  </diagram>
</mxfile>
